<svg xmlns="http://www.w3.org/2000/svg" width="512" height="512" style="shape-rendering:geometricPrecision;text-rendering:geometricPrecision;image-rendering:optimizeQuality;fill-rule:evenodd;clip-rule:evenodd"><path style="opacity:.168" fill="#656665" d="M508.5 511.5H2.5C1.336 343.54 1.17 175.54 2 7.5c.5-1.167 1.333-2 2.5-2.5 167.333-.667 334.667-.667 502 0 1.167.5 2 1.333 2.5 2.5.831 168.04.664 336.04-.5 504Z"/><path style="opacity:1" fill="#a51b28" d="M77.5 9.5c2.947 2.52 5.447 5.52 7.5 9 .692.937.525 1.603-.5 2-5.398-2.84-11.065-3.507-17-2 3.078 3.874 7.078 6.207 12 7 .763.768 1.763 1.268 3 1.5-4.947 1.832-9.947 2.498-15 2-1.495 3.84-.162 5.174 4 4 4.012-2.291 8.345-4.125 13-5.5.607.124.94.457 1 1-5.943 3.88-8.61 9.213-8 16 6.543-3.542 10.876-8.876 13-16 2.125 7.6 6.625 13.266 13.5 17 .388-6.729-2.112-12.229-7.5-16.5 2.667-.667 2.667-1.333 0-2 6.67-1.168 12.337-4.168 17-9-4-.667-8-.667-12 0a25.936 25.936 0 0 1-9 3.5 54.935 54.935 0 0 0 1-12h237v4c-9.911 2.743-16.411 9.076-19.5 19-1.624 18.865 6.876 29.532 25.5 32 .987 20.49 11.654 29.657 32 27.5 8.421-2.259 14.088-7.426 17-15.5 26.067 4.093 38.234-6.907 36.5-33a56.456 56.456 0 0 0-8.5-13c4.048-6.426 6.048-13.426 6-21h82v361c-18.563-11.383-32.73-7.383-42.5 12a18.453 18.453 0 0 0-.5 6c-21.43-.069-31.264 10.598-29.5 32 2.489 8.321 7.656 14.321 15.5 18-3.223 6.116-3.723 12.45-1.5 19a82.262 82.262 0 0 1 10 7c-1.23-5.889-1.564-11.889-1-18 3.743-3.759 8.243-4.926 13.5-3.5a10.134 10.134 0 0 0 4 1.5c-.172.992.162 1.658 1 2 2.4-2.194 5.066-3.861 8-5 .891.61 1.891.943 3 1 8.444 1.645 11.277 6.645 8.5 15-1.513 2.524-2.18 5.191-2 8 3.649-4.159 8.149-6.826 13.5-8v44h-18c-1.636-5.475-4.97-9.642-10-12.5 8.018.153 14.685-2.681 20-8.5-7.686-2.363-14.353-.697-20 5l-1-2c3.034-6.993 2.367-13.659-2-20a48.165 48.165 0 0 0-2.5 5l-1 13c-3.348-3.698-5.348-8.031-6-13-1.356-.88-2.856-1.214-4.5-1v5c1.478-.262 2.811.071 4 1a139.582 139.582 0 0 0 6 9.5c-3.026-.564-6.026-1.564-9-3-12.549-1.397-13.216.936-2 7 3.71.895 7.377 1.895 11 3-3.978 3.136-6.978 6.969-9 11.5H9.5v-110a82.367 82.367 0 0 0 4-9c3.231 6.688 5.231 13.688 6 21h4c-2.712-5.077-4.545-10.41-5.5-16l12 16a8.435 8.435 0 0 1 .5 4c2.666.434 3.833-.566 3.5-3a143.524 143.524 0 0 1-15.5-19l.5-1A94.819 94.819 0 0 1 31.5 395a4.934 4.934 0 0 0 3 .5v-4a10.1 10.1 0 0 1-6-1.5 78.674 78.674 0 0 0-12-9 67.627 67.627 0 0 1 19.5.5c3.333-1.333 3.333-2.667 0-4a38.463 38.463 0 0 1-14.5.5c7.38-3.185 15.046-5.018 23-5.5v-4a253.132 253.132 0 0 1-27 8.5 52.166 52.166 0 0 0 10-7c1.717-1.559 3.717-2.392 6-2.5v-4c-3.04-.094-4.707 1.406-5 4.5L16 376.5c.251-7.185 2.418-13.685 6.5-19.5-.507-2.341-1.674-2.841-3.5-1.5a189.97 189.97 0 0 1-4 15 91.525 91.525 0 0 1 .5-23c-1.628-2.693-2.962-2.526-4 .5a96.976 96.976 0 0 1 .5 23.5c-.374-1.991-1.207-3.658-2.5-5v-227c2.835 8.478 8.168 14.978 16 19.5-5.302 16.729.032 28.729 16 36 10.72 1.981 19.888-.853 27.5-8.5 2.559 3.031 5.726 5.198 9.5 6.5 24.007 2.326 35.174-8.508 33.5-32.5a14.325 14.325 0 0 0-2.5-5.5c13.875-10.783 16.709-23.95 8.5-39.5-7.41-7.972-16.576-11.305-27.5-10-3.118-13.112-11.451-20.112-25-21-15.4.734-24.066 8.734-26 24-14.715-.928-24.715 5.406-30 19V9.5h68Z"/><path style="opacity:1" fill="#f8532a" d="M87.5 9.5h6a54.935 54.935 0 0 1-1 12 25.936 25.936 0 0 0 9-3.5c4-.667 8-.667 12 0-4.663 4.832-10.33 7.832-17 9 2.667.667 2.667 1.333 0 2 5.388 4.271 7.888 9.771 7.5 16.5-6.875-3.734-11.375-9.4-13.5-17-2.124 7.124-6.457 12.458-13 16-.61-6.787 2.057-12.12 8-16 .79-.283 1.456-.783 2-1.5a34.077 34.077 0 0 0-8-1.5c-4.922-.793-8.922-3.126-12-7 5.935-1.507 11.602-.84 17 2a30.139 30.139 0 0 1 3.5 3c-.226-4.623-.393-9.29-.5-14Z"/><path style="opacity:1" fill="#f3cec5" d="M330.5 9.5h28a326.413 326.413 0 0 0 7 19c-.346 1.196-.846 1.196-1.5 0l-8-10a4.934 4.934 0 0 1-.5-3h-4a4.934 4.934 0 0 0 .5 3c2.468.604 4.468 1.938 6 4a86.418 86.418 0 0 0 7.5 10l-2.5 1c-13.595-2.551-13.762-2.051-.5 1.5a40.939 40.939 0 0 1-9 .5c-2.885-.306-5.552.027-8 1-3.053-.181-6.053-.348-9-.5-1.341 1.827-.841 2.993 1.5 3.5 4.634-1.815 9.467-2.482 14.5-2 2.885-.306 5.552.027 8 1a47.896 47.896 0 0 1-15 4c.785 4.962 2.618 5.295 5.5 1a123.92 123.92 0 0 0 14.5-6c.838.342 1.172 1.008 1 2a110.056 110.056 0 0 1-12 16c.789 1.988 1.955 2.321 3.5 1a122.295 122.295 0 0 1 7-13c-1.08 8.321-3.08 16.321-6 24 1 1.333 2 1.333 3 0a227.289 227.289 0 0 1 6-26c1.136 5.853 1.302 11.686.5 17.5.507 2.341 1.674 2.841 3.5 1.5a215.455 215.455 0 0 1-1.5-12l1-9a182.418 182.418 0 0 1 10.5 12 8.43 8.43 0 0 1 .5 4c1.846.278 3.18-.389 4-2a257.085 257.085 0 0 1-12-12.5l1-.5a214.562 214.562 0 0 0 22 14v-4a12.935 12.935 0 0 1-5-.5l-17-11a55.206 55.206 0 0 1 16.5 4.5c2.341-.507 2.841-1.673 1.5-3.5-6.963-.074-13.63-1.74-20-5l15-6.5c2.928 1.42 4.262.42 4-3a150.861 150.861 0 0 1-16 5.5c5.212-5.564 11.212-9.897 18-13 .837-1.011 1.17-2.178 1-3.5a8.435 8.435 0 0 0-4 .5 110.593 110.593 0 0 1-16 14.5l-1-1c3.215-4.44 5.882-9.106 8-14h-3c.04 2.924-.793 5.591-2.5 8l-7 10c-1.269-7.75-1.769-15.416-1.5-23h51c.048 7.574-1.952 14.574-6 21a56.456 56.456 0 0 1 8.5 13c1.734 26.093-10.433 37.093-36.5 33-2.912 8.074-8.579 13.241-17 15.5-20.346 2.157-31.013-7.01-32-27.5-18.624-2.468-27.124-13.135-25.5-32 3.089-9.924 9.589-16.257 19.5-19v-4Z"/><path style="opacity:1" fill="#bc2a28" d="M77.5 9.5h10c.107 4.71.274 9.377.5 14a30.139 30.139 0 0 0-3.5-3c1.025-.397 1.192-1.063.5-2-2.053-3.48-4.553-6.48-7.5-9Z"/><path style="opacity:1" fill="#fc7956" d="M358.5 9.5h1c2.484 6.308 4.984 12.641 7.5 19a48.74 48.74 0 0 0-1.5-16.5c.243-.902.577-1.735 1-2.5h2c-.269 7.584.231 15.25 1.5 23l7-10c1.707-2.409 2.54-5.076 2.5-8h3c-2.118 4.894-4.785 9.56-8 14l1 1a110.593 110.593 0 0 0 16-14.5 8.435 8.435 0 0 1 4-.5c.17 1.322-.163 2.489-1 3.5-6.788 3.103-12.788 7.436-18 13a150.861 150.861 0 0 0 16-5.5c.262 3.42-1.072 4.42-4 3l-15 6.5c6.37 3.26 13.037 4.926 20 5 1.341 1.827.841 2.993-1.5 3.5a55.206 55.206 0 0 0-16.5-4.5l17 11c1.634.493 3.301.66 5 .5v4a214.562 214.562 0 0 1-22-14l-1 .5a257.085 257.085 0 0 0 12 12.5c-.82 1.611-2.154 2.278-4 2a8.43 8.43 0 0 0-.5-4 182.418 182.418 0 0 0-10.5-12l-1 9c.402 4.128.902 8.128 1.5 12-1.826 1.341-2.993.841-3.5-1.5.802-5.814.636-11.647-.5-17.5a227.289 227.289 0 0 0-6 26c-1 1.333-2 1.333-3 0 2.92-7.679 4.92-15.679 6-24a122.295 122.295 0 0 0-7 13c-1.545 1.321-2.711.988-3.5-1a110.056 110.056 0 0 0 12-16c3.075-.572 5.075-2.405 6-5.5a8.435 8.435 0 0 0-4-.5 4.934 4.934 0 0 0-.5-3c-.574 1.992-1.741 3.492-3.5 4.5.752.67 1.086 1.504 1 2.5a123.92 123.92 0 0 1-14.5 6c-2.882 4.295-4.715 3.962-5.5-1a47.896 47.896 0 0 0 15-4 28.233 28.233 0 0 1 4-1.5c-3.856-.177-7.523-.677-11-1.5a40.939 40.939 0 0 0 9-.5c-13.262-3.551-13.095-4.051.5-1.5l2.5-1a86.418 86.418 0 0 1-7.5-10c-1.532-2.062-3.532-3.396-6-4a4.934 4.934 0 0 1-.5-3h4a4.934 4.934 0 0 0 .5 3l8 10c.654 1.196 1.154 1.196 1.5 0a326.413 326.413 0 0 1-7-19Z"/><path style="opacity:1" fill="#f5c6ba" d="M359.5 9.5h7a11.114 11.114 0 0 0-1 2.5 48.74 48.74 0 0 1 1.5 16.5c-2.516-6.359-5.016-12.692-7.5-19Z"/><path style="opacity:1" fill="#ebbbb4" d="M179.5 29.5h-3c-1.428-1.877-.928-3.21 1.5-4 2.428.79 2.928 2.123 1.5 4Z"/><path style="opacity:1" fill="#d33a29" d="M79.5 25.5c2.716.178 5.383.678 8 1.5-.544.717-1.21 1.217-2 1.5-.06-.543-.393-.876-1-1-4.655 1.375-8.988 3.209-13 5.5-4.162 1.174-5.495-.16-4-4 5.053.498 10.053-.168 15-2-1.237-.232-2.237-.732-3-1.5Z"/><path style="opacity:1" fill="#fe653d" d="M344.5 28.5c8.965 2.182 8.965 3.182 0 3v-3Z"/><path style="opacity:1" fill="#fe5a2f" d="M366.5 39.5c.172-.992-.162-1.658-1-2 .086-.996-.248-1.83-1-2.5 1.759-1.008 2.926-2.508 3.5-4.5.483.948.649 1.948.5 3a8.435 8.435 0 0 1 4 .5c-.925 3.095-2.925 4.928-6 5.5Z"/><path style="opacity:1" fill="#f6512a" d="M109.5 30.5c3.661-.15 4.661 1.35 3 4.5a8.435 8.435 0 0 1-4 .5c-.134-1.791.199-3.458 1-5Z"/><path style="opacity:1" fill="#eec4bc" d="M166.5 33.5v4c-3 .333-4.333-1-4-4h4Z"/><path style="opacity:1" fill="#ecbfb8" d="M188.5 33.5a8.435 8.435 0 0 1 4 .5c1.174 2.829.174 3.829-3 3-.837-1.011-1.17-2.178-1-3.5Z"/><path style="opacity:1" fill="#fd6d46" d="M345.5 36.5c2.559-.302 4.893.032 7 1-5.033-.482-9.866.185-14.5 2-2.341-.507-2.841-1.673-1.5-3.5 2.947.152 5.947.319 9 .5Z"/><path style="opacity:1" fill="#f8a48d" d="M345.5 36.5c2.448-.973 5.115-1.306 8-1 3.477.823 7.144 1.323 11 1.5-1.401.41-2.734.91-4 1.5-2.448-.973-5.115-1.306-8-1-2.107-.968-4.441-1.302-7-1Z"/><path style="opacity:1" fill="#c46367" d="M176.5 29.5h3c-1.096 3.913-1.262 7.913-.5 12 8.435-3.859 8.602-3.359.5 1.5a18.95 18.95 0 0 1 5 3c-1.756.14-3.422-.36-5-1.5a31.117 31.117 0 0 0-1 11h-1a31.117 31.117 0 0 0-1-11c-1.578 1.14-3.244 1.64-5 1.5a18.95 18.95 0 0 1 5-3 73.62 73.62 0 0 0-10-5.5v-4c2.533 3.71 6.033 6.377 10.5 8 .762-4.087.596-8.087-.5-12Z"/><path style="opacity:1" fill="#cc7577" d="M480.5 47.5c-2.422-1.492-3.088-3.492-2-6a20.807 20.807 0 0 1 2 6Z"/><path style="opacity:1" fill="#f5502a" d="M87.5 44.5h4v5c-4.435.578-5.768-1.09-4-5Z"/><path style="opacity:1" fill="#ecbdb6" d="M162.5 48.5h5c.15 3.661-1.35 4.661-4.5 3a4.934 4.934 0 0 1-.5-3Zm26 0h5c.15 3.661-1.35 4.661-4.5 3a4.934 4.934 0 0 1-.5-3Z"/><path style="opacity:1" fill="#ce7879" d="M478.5 49.5h-4c.793-3.665 2.126-3.665 4 0Z"/><path style="opacity:1" fill="#cc7576" d="M487.5 54.5c-.876-.13-1.543.203-2 1a6.845 6.845 0 0 1 1 4h-3a12.93 12.93 0 0 0-.5-5 102.425 102.425 0 0 0-2.5 8 87.69 87.69 0 0 1-.5-8 9.564 9.564 0 0 1-3 3l-1.5-1a19.897 19.897 0 0 0 4-3.5c-2.535-.617-4.868-.117-7 1.5-.886-.825-1.219-1.825-1-3a32.438 32.438 0 0 0 8-.5c-.556-.383-.889-.883-1-1.5 1.333 0 2-.667 2-2 .617.11 1.117.444 1.5 1a14.72 14.72 0 0 1 1.5-5c.255 1.843.422 3.843.5 6a46.022 46.022 0 0 0 5.5-6l1 1.5-5 5c1.813-.046 3.479.12 5 .5a20.211 20.211 0 0 1-6 1.5 81.216 81.216 0 0 1 3 2.5Z"/><path style="opacity:1" fill="#ebbbb5" d="M177.5 55.5h1c1.604.787 2.271 2.12 2 4h-5c-.271-1.88.396-3.213 2-4Z"/><path style="opacity:1" fill="#d68a88" d="M487.5 54.5h4c.219 1.175-.114 2.175-1 3l-3-3Z"/><path style="opacity:1" fill="#f2cec5" d="M9.5 139.5v-12c5.285-13.594 15.285-19.928 30-19 1.934-15.266 10.6-23.266 26-24 13.549.888 21.882 7.888 25 21 10.924-1.305 20.09 2.028 27.5 10 8.209 15.55 5.375 28.717-8.5 39.5a14.325 14.325 0 0 1 2.5 5.5c1.674 23.992-9.493 34.826-33.5 32.5-3.774-1.302-6.941-3.469-9.5-6.5-7.612 7.647-16.78 10.481-27.5 8.5-15.968-7.271-21.302-19.271-16-36-7.832-4.522-13.165-11.022-16-19.5Z"/><path style="opacity:1" fill="#eec3bc" d="M118.5 81.5c-.249 8.924 4.085 14.09 13 15.5-8.167.167-12.333 4.333-12.5 12.5-1.924-9.396-7.757-13.563-17.5-12.5a61.333 61.333 0 0 0 13-3c2.394-3.774 3.727-7.94 4-12.5Z"/><path style="opacity:1" fill="#ebbbb4" d="M416.5 92.5c10.885-2.217 19.552 1.116 26 10-.865 1.083-1.865 1.249-3 .5-11.184-10.148-22.184-9.982-33 .5-1.432-.233-1.932-.9-1.5-2 3.449-3.623 7.283-6.623 11.5-9Z"/><path style="opacity:1" fill="#ebbcb5" d="M458.5 92.5c10.885-2.217 19.552 1.116 26 10-.865 1.083-1.865 1.249-3 .5-11.154-10.098-22.154-9.932-33 .5-1.432-.233-1.932-.9-1.5-2 3.449-3.623 7.283-6.623 11.5-9Z"/><path style="opacity:1" fill="#e9b6b0" d="M417.5 98.5c7.333-1.274 13.667.56 19 5.5a4.457 4.457 0 0 1-2 1.5c-7.068-5.279-14.068-5.279-21 0-1.601-.535-2.101-1.535-1.5-3a35.518 35.518 0 0 0 5.5-4Z"/><path style="opacity:1" fill="#eab8b2" d="M459.5 98.5c7.333-1.274 13.667.56 19 5.5a4.457 4.457 0 0 1-2 1.5c-7.068-5.279-14.068-5.279-21 0-1-.333-1.667-1-2-2a835.698 835.698 0 0 1 6-5Z"/><path style="opacity:1" fill="#e7b0ab" d="M420.5 103.5c4.219-.521 7.886.646 11 3.5-.608.87-1.441 1.37-2.5 1.5-3.514-1.295-7.014-1.295-10.5 0a4.457 4.457 0 0 1-2-1.5c1.231-1.405 2.564-2.571 4-3.5Z"/><path style="opacity:1" fill="#e8b3ad" d="M462.5 103.5c4.099-.133 7.766 1.033 11 3.5-.608.87-1.441 1.37-2.5 1.5-3.514-1.295-7.014-1.295-10.5 0a4.457 4.457 0 0 1-2-1.5c1.231-1.405 2.564-2.571 4-3.5Z"/><path style="opacity:1" fill="#ecbeb7" d="M438.5 106.5c10.293-1.351 18.627 1.982 25 10-.865 1.083-1.865 1.249-3 .5-5.949-6.538-13.282-8.871-22-7-3.443 1.618-6.443 3.785-9 6.5-1.223 1.114-2.556 1.281-4 .5 3.263-4.948 7.597-8.448 13-10.5Z"/><path style="opacity:1" fill="#e9b8b1" d="M421.5 109.5c2.165-.384 3.832.283 5 2-1.545.952-3.212 1.285-5 1v-3Z"/><path style="opacity:1" fill="#eab8b2" d="M463.5 109.5c2.165-.384 3.832.283 5 2-1.545.952-3.212 1.285-5 1v-3Z"/><path style="opacity:1" fill="#edc1ba" d="M438.5 112.5c7.333-1.274 13.667.559 19 5.5a4.457 4.457 0 0 1-2 1.5c-7.068-5.279-14.068-5.279-21 0a4.457 4.457 0 0 1-2-1.5 45.494 45.494 0 0 1 6-5.5Z"/><path style="opacity:1" fill="#edc0b9" d="M439.5 118.5a40.914 40.914 0 0 1 9 .5c1.41.368 2.41 1.201 3 2.5-3.936-.138-7.936.196-12 1-2.294-1.125-2.294-2.459 0-4Z"/><path style="opacity:1" fill="#f0c7bf" d="M442.5 124.5c1.788-.285 3.455.048 5 1l-2.5 1c-1.376-.184-2.209-.851-2.5-2Z"/><path style="opacity:1" fill="#603343" d="M204.5 166.5c-2.033 2.513-4.699 4.013-8 4.5-8.887.568-17.72.068-26.5-1.5-4.783-.845-8.616.655-11.5 4.5-.832.688-1.498.521-2-.5a21.569 21.569 0 0 1 7-5.5l34 1c2.606-.792 4.606-2.292 6-4.5 3.741-6.14 3.908-12.473.5-19-7.305-9.068-16.805-13.401-28.5-13-17.515.332-30.015 8.332-37.5 24-2.413 8.507-3.08 17.174-2 26a362.05 362.05 0 0 0 11 23c3.766 14.547-1.734 21.713-16.5 21.5-7.478-6.1-7.811-12.434-1-19 6.819-1.596 11.152.904 13 7.5l-1 3c-1.775-9.303-6.609-11.303-14.5-6-1.779 10.221 2.387 14.388 12.5 12.5 6.167-3.845 8.334-9.345 6.5-16.5a113.453 113.453 0 0 0-9-18c-9.29-29.922.877-49.755 30.5-59.5 11.594-1.767 22.261.566 32 7 9.893 8.147 11.56 17.647 5 28.5Z"/><path style="opacity:1" fill="#bb4f53" d="M76.5 140.5h-2a970.783 970.783 0 0 0 21.5-9c2.341.507 2.841 1.674 1.5 3.5a106.644 106.644 0 0 0-21 5.5Z"/><path style="opacity:1" fill="#fb6164" d="M304.5 184.5a4.934 4.934 0 0 0 3-.5c-4.24-.256-6.24-2.422-6-6.5h4v-10c.341-3.016 1.507-5.682 3.5-8 1.129-1.641 2.629-2.641 4.5-3a71.933 71.933 0 0 1 16 3.5c4.118 4.474 3.785 8.64-1 12.5 1.829.782 3.329.116 4.5-2 3.028-8.098.195-12.931-8.5-14.5-3.525-.179-6.859-.679-10-1.5 7.211-7.009 15.877-9.509 26-7.5 23.325 9.15 29.492 24.983 18.5 47.5-12.109 13.955-26.276 16.455-42.5 7.5-5.638-4.797-9.638-10.63-12-17.5Z"/><path style="opacity:1" fill="#ba4c50" d="M74.5 140.5c-.418.722-1.084 1.222-2 1.5 5.184.816 10.184.65 15-.5 2.9-1.454 4.233-.454 4 3a95.223 95.223 0 0 0-22-.5 148.678 148.678 0 0 1 13 10c1.634.494 3.3.66 5 .5v4a215.86 215.86 0 0 1-15.5-11l-.5 1c5.873 7.166 11.206 14.499 16 22h-4a8.435 8.435 0 0 0-.5-4l-12-16c1.118 5.179 2.951 10.179 5.5 15-.789 1.988-1.956 2.321-3.5 1a98.58 98.58 0 0 0-6-21c-3.47 6.723-5.47 13.723-6 21-1.544 1.321-2.711.988-3.5-1a90.926 90.926 0 0 0 5.5-16c-6.022 6.155-10.522 13.155-13.5 21-2.666.434-3.833-.566-3.5-3a14.506 14.506 0 0 0 5-4A353.709 353.709 0 0 1 61.5 149c-4.595 1.726-8.595 4.559-12 8.5-1.189.929-2.522 1.262-4 1-.17-1.322.163-2.489 1-3.5 6.26-2.467 11.927-5.967 17-10.5a54.558 54.558 0 0 0-18-.5c-2.809 2.056-4.142 1.223-4-2.5a69.282 69.282 0 0 0 19 .5 409.773 409.773 0 0 1-21.5-7.5c-2.724 1.338-3.89.338-3.5-3a111.38 111.38 0 0 0 24 7.5 86.39 86.39 0 0 0-13.5-8.5c-.333-2.434.834-3.434 3.5-3-.17 1.322.163 2.489 1 3.5a100.425 100.425 0 0 1 13.5 9.5 75.955 75.955 0 0 0-6.5-22h3a161.336 161.336 0 0 0 4.5 17c.575-8.72.575-17.386 0-26 1.826-1.341 2.993-.841 3.5 1.5a96.976 96.976 0 0 0-.5 23.5 60.185 60.185 0 0 0 3.5-16h4a337.173 337.173 0 0 0-8 21.5c6.284-2.502 11.617-6.502 16-12a4.934 4.934 0 0 1 3-.5v4c-5.502 1.756-10.502 4.59-15 8.5a4.934 4.934 0 0 0 3 .5Z"/><path style="opacity:1" fill="#d48988" d="M74.5 140.5h2c3.462.982 7.129 1.315 11 1-4.816 1.15-9.816 1.316-15 .5.916-.278 1.582-.778 2-1.5Z"/><path style="opacity:1" fill="#fb6165" d="M203.5 164.5c-1.394 2.208-3.394 3.708-6 4.5l-34-1a21.569 21.569 0 0 0-7 5.5c.502 1.021 1.168 1.188 2 .5 2.884-3.845 6.717-5.345 11.5-4.5a110.206 110.206 0 0 0 26.5 1.5c3.301-.487 5.967-1.987 8-4.5 1.322-.17 2.489.163 3.5 1 6.337 15.148 3.503 28.315-8.5 39.5-17.506 9.797-32.006 6.631-43.5-9.5-7.539-15.297-4.706-28.464 8.5-39.5 13.653-8.092 26.487-6.925 38.5 3.5.483.948.649 1.948.5 3Z"/><path style="opacity:1" fill="#9a4853" d="M172.5 175.5a9.86 9.86 0 0 1 6 1l-3 1c-1.53-.14-2.53-.807-3-2Z"/><path style="opacity:1" fill="#994853" d="M191.5 175.5a9.86 9.86 0 0 1 6 1l-3 1c-1.53-.14-2.53-.807-3-2Z"/><path style="opacity:1" fill="#743846" d="M305.5 167.5v10h-4c-.24 4.078 1.76 6.244 6 6.5a4.934 4.934 0 0 1-3 .5c-5.597-2.047-6.264-5.047-2-9a62.744 62.744 0 0 0 1.5-11c.232 1.237.732 2.237 1.5 3Z"/><path style="opacity:1" fill="#84434f" d="M183.5 175.5c1.149.291 1.816 1.124 2 2.5a29.2 29.2 0 0 0-1 7.5c5.652 1.126 6.319 3.626 2 7.5-1.667.667-3.333.667-5 0 3.805.026 5.805-1.808 6-5.5h-5c.521-3.981.854-7.981 1-12Z"/><path style="opacity:1" fill="#5a3242" d="M314.5 154.5c3.141.821 6.475 1.321 10 1.5 8.695 1.569 11.528 6.402 8.5 14.5-1.171 2.116-2.671 2.782-4.5 2 4.785-3.86 5.118-8.026 1-12.5a71.933 71.933 0 0 0-16-3.5c-7.524-5.343-7.858-11.176-1-17.5 20.05-9.657 37.883-6.491 53.5 9.5 12.654 14.937 15.654 31.603 9 50-7.722 8.402-17.222 12.402-28.5 12 8.595-1.698 16.595-4.864 24-9.5 6.402-6.991 8.569-15.157 6.5-24.5-6.123-29.137-23.956-42.637-53.5-40.5-4.88 1.355-9.047 3.855-12.5 7.5-2.662 5.048-1.495 8.715 3.5 11Z"/><path style="opacity:1" fill="#302e41" d="M351.5 309.5h-34a50.464 50.464 0 0 1-10-.5c-7.327-12.484-11.327-25.984-12-40.5-5.094.836-9.427-.498-13-4a114.677 114.677 0 0 1-6-13c-.541-3.152.459-5.652 3-7.5 13.127-2.148 22.46-9.148 28-21 5.544-1.404 11.21-1.904 17-1.5-.214-1.644.12-3.144 1-4.5a49.226 49.226 0 0 1 14 0c1.655 1.444 2.322 3.278 2 5.5 5.676-.166 11.343.001 17 .5 6.372 8.773 10.206 18.606 11.5 29.5 2.243 20.268-1.924 39.101-12.5 56.5a18.453 18.453 0 0 1-6 .5Z"/><path style="opacity:1" fill="#8b2e3a" d="M178.5 219.5c3.14-1.141 6.473-1.308 10-.5 1.82.2 3.153 1.034 4 2.5-4.507-1.613-9.173-2.279-14-2Z"/><path style="opacity:1" fill="#302e41" d="M178.5 219.5c4.827-.279 9.493.387 14 2 4.369 3.332 9.369 4.832 15 4.5a761.264 761.264 0 0 1 22.5 13.5 8.43 8.43 0 0 1 .5 4 43.64 43.64 0 0 0-8 13 138.211 138.211 0 0 1 6 19 61.915 61.915 0 0 1 0 16c-1.317 6.132-4.317 11.299-9 15.5-6.171 3.542-12.504 6.376-19 8.5-2.982.463-5.982.796-9 1h-22c-5.171-.5-9.838-2.166-14-5-.524-4.57-.524-9.237 0-14 2.178-8.409 3.511-17.076 4-26v-3l-13-2c-3.855-.358-5.855-2.525-6-6.5a129.95 129.95 0 0 1 7.5-24.5c3.412-3.379 7.578-4.879 12.5-4.5 4.307-6.472 10.307-10.305 18-11.5Z"/><path style="opacity:1" fill="#fa6164" d="M230.5 243.5a460.26 460.26 0 0 1 25 14 46.053 46.053 0 0 0-5 7 119.828 119.828 0 0 0 4 9.5 2.428 2.428 0 0 1-2 .5l-30-18a43.64 43.64 0 0 1 8-13Z"/><path style="opacity:1" fill="#fa6164" d="M276.5 251.5a114.677 114.677 0 0 0 6 13c-6.239 4.126-12.906 7.793-20 11-1.644.214-3.144-.12-4.5-1a22.573 22.573 0 0 0-4-8c-.667-1.333-.667-2.667 0-4a29.01 29.01 0 0 0 4.5-3 131.462 131.462 0 0 1 18-8Z"/><path style="opacity:1" fill="#d14f53" d="m255.5 257.5 3 2a29.01 29.01 0 0 1-4.5 3c-.667 1.333-.667 2.667 0 4a22.573 22.573 0 0 1 4 8c1.356.88 2.856 1.214 4.5 1-1.122.656-2.455.989-4 1-2.383.139-4.383-.528-6-2a2.428 2.428 0 0 0 2-.5 119.828 119.828 0 0 1-4-9.5 46.053 46.053 0 0 1 5-7Z"/><path style="opacity:1" fill="#fc6265" d="m146.5 266.5 13 2v3c-2.178 8.409-3.511 17.076-4 26-1.187 3.446-1.854 7.113-2 11a61.16 61.16 0 0 0-2 5.5c-4.872.825-9.372-.009-13.5-2.5a2395.403 2395.403 0 0 1 5.5-45h3Z"/><path style="opacity:1" fill="#733f4c" d="M159.5 271.5c-.489 8.924-1.822 17.591-4 26 .489-8.924 1.822-17.591 4-26Z"/><path style="opacity:1" fill="#872c38" d="M228.5 275.5c2.596 5.349 2.596 10.683 0 16a61.915 61.915 0 0 0 0-16Z"/><path style="opacity:1" fill="#6d3d4b" d="M155.5 297.5c-.524 4.763-.524 9.43 0 14-1.548-.321-2.215-1.321-2-3 .146-3.887.813-7.554 2-11Z"/><path style="opacity:1" fill="#fd6265" d="M317.5 309.5h16v53c-1.068.934-2.401 1.268-4 1h-10c-1.987-17.636-2.653-35.636-2-54Z"/><path style="opacity:1" fill="#cf4c54" d="M333.5 309.5h18v1h-16v52h-2v-53Z"/><path style="opacity:1" fill="#fd6165" d="M351.5 310.5a702.728 702.728 0 0 1-1 53h-12c-1.291.237-2.291-.096-3-1v-52h16Z"/><path style="opacity:1" fill="#fb6164" d="M200.5 315.5h3a589.47 589.47 0 0 1-1 48h-11c-1.322.17-2.489-.163-3.5-1-.5-14.996-.667-29.996-.5-45 1.599.268 2.932-.066 4-1 3.018-.204 6.018-.537 9-1Zm-31 1h3c4.134.985 8.468 1.318 13 1a541.778 541.778 0 0 1-1 46h-13c-.617-.111-1.117-.444-1.5-1-.5-15.33-.667-30.663-.5-46Z"/><path style="opacity:1" fill="#eec3bc" d="M428.5 320.5c-.959 12.21 4.707 18.71 17 19.5-11.793.463-17.293 6.63-16.5 18.5a29.927 29.927 0 0 1-2-9 15.83 15.83 0 0 0-3.5-5.5 79.965 79.965 0 0 0-14-4c5.668-.592 10.835-2.425 15.5-5.5a52.888 52.888 0 0 0 3.5-14Z"/><path style="opacity:1" fill="#934a58" d="M171.5 363.5h13c-.111.617-.444 1.117-1 1.5l-6 .5c-2.452-.039-4.452-.706-6-2Z"/><path style="opacity:1" fill="#924958" d="M319.5 363.5h10c-1.014 1.265-2.514 1.931-4.5 2l-4.5-.5c-.556-.383-.889-.883-1-1.5Z"/><path style="opacity:1" fill="#804959" d="M191.5 363.5h11c-1.194 1.277-2.86 1.944-5 2l-5-.5c-.556-.383-.889-.883-1-1.5Z"/><path style="opacity:1" fill="#7f4859" d="M338.5 363.5h12c-1.371 1.287-3.205 1.953-5.5 2l-5.5-.5c-.556-.383-.889-.883-1-1.5Z"/><path style="opacity:1" fill="#f2cdc4" d="M501.5 370.5v40a157.427 157.427 0 0 1-12 8.5c-.937.692-1.603.525-2-.5v-1a83.295 83.295 0 0 1 7-19h-4a69.276 69.276 0 0 1-3.5 16 96.976 96.976 0 0 1 .5-23.5c-.507-2.341-1.674-2.841-3.5-1.5.575 8.614.575 17.28 0 26a161.19 161.19 0 0 1-4.5-17h-3a407.255 407.255 0 0 0 7 19c.237 1.291-.096 2.291-1 3a116.997 116.997 0 0 1-16-13c-1.988.789-2.321 1.955-1 3.5a79.052 79.052 0 0 1 13 8 541.522 541.522 0 0 1-19-4.5 142.282 142.282 0 0 0 20 7.5 69.282 69.282 0 0 1-19-.5v4c6.776-1.834 13.776-2.501 21-2 1.333.667 1.333 1.333 0 2-1 .333-1.667 1-2 2 1.025.397 1.192 1.063.5 2a215.656 215.656 0 0 0-10.5 15 10.134 10.134 0 0 1-4-1.5c-5.257-1.426-9.757-.259-13.5 3.5-.564 6.111-.23 12.111 1 18a82.262 82.262 0 0 0-10-7c-2.223-6.55-1.723-12.884 1.5-19-7.844-3.679-13.011-9.679-15.5-18-1.764-21.402 8.07-32.069 29.5-32a18.453 18.453 0 0 1 .5-6c9.77-19.383 23.937-23.383 42.5-12Z"/><path style="opacity:1" fill="#d68b8a" d="M98.5 370.5c2.512.716 2.512 1.716 0 3-1.062-.925-1.062-1.925 0-3Z"/><path style="opacity:1" fill="#e4452a" d="M9.5 391.5v-25c1.293 1.342 2.126 3.009 2.5 5 .786-7.87.62-15.703-.5-23.5 1.038-3.026 2.372-3.193 4-.5a91.525 91.525 0 0 0-.5 23 189.97 189.97 0 0 0 4-15c1.826-1.341 2.993-.841 3.5 1.5-4.082 5.815-6.249 12.315-6.5 19.5l12.5-8.5c.293-3.094 1.96-4.594 5-4.5v4c-2.283.108-4.283.941-6 2.5a52.166 52.166 0 0 1-10 7 253.132 253.132 0 0 0 27-8.5v4c-7.954.482-15.62 2.315-23 5.5 4.875.753 9.708.586 14.5-.5 3.333 1.333 3.333 2.667 0 4a67.627 67.627 0 0 0-19.5-.5 78.674 78.674 0 0 1 12 9 10.1 10.1 0 0 0 6 1.5v4a4.934 4.934 0 0 1-3-.5A94.819 94.819 0 0 0 19 384.5l-.5 1a143.524 143.524 0 0 0 15.5 19c.333 2.434-.834 3.434-3.5 3a8.435 8.435 0 0 0-.5-4l-12-16c.955 5.59 2.788 10.923 5.5 16h-4c-.769-7.312-2.769-14.312-6-21a82.367 82.367 0 0 1-4 9Z"/><path style="opacity:1" fill="#d17e7e" d="M88.5 376.5h-4c.793-3.665 2.126-3.665 4 0Z"/><path style="opacity:1" fill="#ce7879" d="M88.5 376.5a2.429 2.429 0 0 0 2-.5 64.538 64.538 0 0 0-4-6.5c.825-.886 1.825-1.219 3-1 .642 7.442 1.975 8.108 4 2 .952 1.033.952 2.2 0 3.5.405.945 1.072 1.612 2 2l-1 1c7.788-.201 7.788.466 0 2 1.941 1.903 4.274 2.736 7 2.5.219 1.175-.114 2.175-1 3-1.816-1.941-3.816-2.608-6-2 2.913 2.401 2.58 3.734-1 4 .285-1.788-.048-3.455-1-5-1.908 10.536-2.741 10.536-2.5 0-1.17 2.116-2.67 2.782-4.5 2a19.885 19.885 0 0 0 4-3.5c-2.535-.617-4.868-.117-7 1.5-1-.333-1.667-1-2-2a42.758 42.758 0 0 1 9-1.5c-.556-.383-.89-.883-1-1.5Z"/><path style="opacity:1" fill="#bf575b" d="M487.5 417.5a2.428 2.428 0 0 0-.5-2c-.816 1.323-1.983 1.989-3.5 2a407.255 407.255 0 0 1-7-19h3a161.19 161.19 0 0 0 4.5 17c.575-8.72.575-17.386 0-26 1.826-1.341 2.993-.841 3.5 1.5a96.976 96.976 0 0 0-.5 23.5 69.276 69.276 0 0 0 3.5-16h4a83.295 83.295 0 0 0-7 19Z"/><path style="opacity:1" fill="#b0373c" d="M459.5 414.5a6.846 6.846 0 0 0-4 1c-2.693-1.628-2.526-2.962.5-4 1.364.871 2.53 1.871 3.5 3Z"/><path style="opacity:1" fill="#eec4bc" d="M501.5 412.5v5c-3.719.97-7.386 1.804-11 2.5 3.695-2.51 7.362-5.01 11-7.5Z"/><path style="opacity:1" fill="#ba4c51" d="M482.5 420.5c-.904.709-1.237 1.709-1 3-7.224-.501-14.224.166-21 2v-4a69.282 69.282 0 0 0 19 .5 142.282 142.282 0 0 1-20-7.5 541.522 541.522 0 0 0 19 4.5 79.052 79.052 0 0 0-13-8c-1.321-1.545-.988-2.711 1-3.5a116.997 116.997 0 0 0 16 13Z"/><path style="opacity:1" fill="#bd5358" d="M501.5 410.5v2c-3.638 2.49-7.305 4.99-11 7.5 3.614-.696 7.281-1.53 11-2.5v1a55.444 55.444 0 0 0-10 4l-4-2c-1.273-.757-1.273-1.423 0-2 .397 1.025 1.063 1.192 2 .5a157.427 157.427 0 0 0 12-8.5Z"/><path style="opacity:1" fill="#a92731" d="M487.5 417.5v1c-1.273.577-1.273 1.243 0 2l4 2h10v1c-4.532-.318-8.866.015-13 1 .215 1.679-.452 2.679-2 3v-1a24.774 24.774 0 0 1-5-1c1.333-.667 1.333-1.333 0-2-.237-1.291.096-2.291 1-3 .904-.709 1.237-1.709 1-3 1.517-.011 2.684-.677 3.5-2 .464.594.631 1.261.5 2Z"/><path style="opacity:1" fill="#e3a9a4" d="M501.5 418.5v4h-10a55.444 55.444 0 0 1 10-4Z"/><path style="opacity:1" fill="#f1cac1" d="M488.5 424.5c4.134-.985 8.468-1.318 13-1v10a137.896 137.896 0 0 0-13-9Z"/><path style="opacity:1" fill="#f2cdc4" d="M78.5 424.5c12.637-1.516 21.637 3.484 27 15 6.156-.171 10.989 2.162 14.5 7 .741 3.062.575 6.062-.5 9 11.332 4.274 14.165 11.941 8.5 23-10.31 10.083-21.81 11.583-34.5 4.5a36.45 36.45 0 0 1-9-8.5c-7.793 9.395-17.793 13.562-30 12.5-13.076-3.997-17.909-12.497-14.5-25.5 2.029-3.096 4.862-4.762 8.5-5-1.744-11.59 3.256-17.257 15-17 2.743-7.41 7.743-12.41 15-15Z"/><path style="opacity:1" fill="#ba4c51" d="M479.5 427.5c-4.213 4.9-9.213 8.567-15 11-.17-1.322.163-2.489 1-3.5a20.64 20.64 0 0 0 6-2 55.157 55.157 0 0 1 8-5.5Z"/><path style="opacity:1" fill="#efc6be" d="M501.5 435.5v7c-4.528-4.428-8.028-9.428-10.5-15a117.686 117.686 0 0 0 10.5 8Z"/><path style="opacity:1" fill="#be5459" d="M481.5 425.5c1.69.517 3.357.85 5 1-2.842 3.988-4.842 8.488-6 13.5.243.902.577 1.735 1 2.5a5.727 5.727 0 0 1-3-1 92.713 92.713 0 0 0 3.5-13 190.792 190.792 0 0 1-11 15 4.934 4.934 0 0 0-.5 3c-.838-.342-1.172-1.008-1-2a215.656 215.656 0 0 1 10.5-15c.692-.937.525-1.603-.5-2 .333-1 1-1.667 2-2Z"/><path style="opacity:1" fill="#efc5bd" d="M478.5 441.5c-2.934 1.139-5.6 2.806-8 5a4.934 4.934 0 0 1 .5-3 190.792 190.792 0 0 0 11-15 92.713 92.713 0 0 1-3.5 13Z"/><path style="opacity:1" fill="#f0c8c0" d="M486.5 426.5v1a2036.653 2036.653 0 0 1 7 20c1-.333 1.667-1 2-2-2.943-4.668-4.776-9.668-5.5-15a269.633 269.633 0 0 0 11.5 15v12c-5.351 1.174-9.851 3.841-13.5 8-.18-2.809.487-5.476 2-8 2.777-8.355-.056-13.355-8.5-15a11.123 11.123 0 0 1-1-2.5c1.158-5.012 3.158-9.512 6-13.5Z"/><path style="opacity:1" fill="#bd5358" d="M488.5 424.5a137.896 137.896 0 0 1 13 9v2a117.686 117.686 0 0 1-10.5-8c2.472 5.572 5.972 10.572 10.5 15v3a269.633 269.633 0 0 1-11.5-15c.724 5.332 2.557 10.332 5.5 15-.333 1-1 1.667-2 2a2036.653 2036.653 0 0 0-7-20c1.548-.321 2.215-1.321 2-3Z"/><path style="opacity:1" fill="#eec3bc" d="M369.5 449.5h-2c-1.538-2.051-1.204-3.718 1-5 2.204 1.282 2.538 2.949 1 5Z"/><path style="opacity:1" fill="#b0373e" d="M91.5 451.5h-2v-3h3c.237 1.291-.096 2.291-1 3Z"/><path style="opacity:1" fill="#f0c7bf" d="M380.5 456.5a5.727 5.727 0 0 1-1-3c1.068-.934 2.401-1.268 4-1v4h-3Zm-23-3a5.727 5.727 0 0 1-1 3h-3v-4c1.599-.268 2.932.066 4 1Z"/><path style="opacity:1" fill="#ae3139" d="M101.5 454.5c3.505.194 3.838 1.194 1 3-.904-.709-1.237-1.709-1-3Z"/><path style="opacity:1" fill="#be565b" d="M367.5 449.5h2a60.931 60.931 0 0 0 .5 11c3.54-2 6.706-4.334 9.5-7a5.727 5.727 0 0 0 1 3 24.598 24.598 0 0 0-10 5.5c8.102 4.859 7.935 5.359-.5 1.5a60.931 60.931 0 0 0-.5 11h-2a60.931 60.931 0 0 0-.5-11c-8.435 3.859-8.602 3.359-.5-1.5a24.598 24.598 0 0 0-10-5.5 5.727 5.727 0 0 0 1-3c2.794 2.666 5.96 5 9.5 7 .499-3.652.665-7.318.5-11Z"/><path style="opacity:1" fill="#c66767" d="M64.5 454.5h4c.34 3.286 1.173 6.286 2.5 9a79.839 79.839 0 0 1-6.5-9Z"/><path style="opacity:1" fill="#efc5bd" d="M353.5 467.5h4v4h-4v-4Z"/><path style="opacity:1" fill="#eec2bb" d="M379.5 467.5h4v4h-4v-4Z"/><path style="opacity:1" fill="#f6512a" d="M483.5 501.5h-8a67.424 67.424 0 0 1-4.5-10 187.625 187.625 0 0 1-5.5 10h-8c2.022-4.531 5.022-8.364 9-11.5a192.214 192.214 0 0 0-11-3c-11.216-6.064-10.549-8.397 2-7 2.974 1.436 5.974 2.436 9 3a139.582 139.582 0 0 1-6-9.5c-1.189-.929-2.522-1.262-4-1v-5c1.644-.214 3.144.12 4.5 1 .652 4.969 2.652 9.302 6 13l1-13a48.165 48.165 0 0 1 2.5-5c4.367 6.341 5.034 13.007 2 20l1 2c5.647-5.697 12.314-7.363 20-5-5.315 5.819-11.982 8.653-20 8.5 5.03 2.858 8.364 7.025 10 12.5Z"/><path style="opacity:1" fill="#cb7273" d="M89.5 451.5h2a534.505 534.505 0 0 1-3.5 17c4.141-4.949 6.641-10.616 7.5-17 1.175-.219 2.175.114 3 1a341.637 341.637 0 0 1-8 15.5c6.007-2.514 9.673-7.014 11-13.5-.237 1.291.096 2.291 1 3-1.808 4.099-4.475 7.599-8 10.5 3.27-.463 6.27-1.796 9-4 2.107-1.264 3.107-3.097 3-5.5h3c-5.934 8.886-14.434 13.219-25.5 13a35.22 35.22 0 0 1-10.5-1.5 246.866 246.866 0 0 1-14-8.5v-3h4c1.993 5.652 5.993 9.319 12 11l1-2a3.647 3.647 0 0 1 1.5 1 170.685 170.685 0 0 0-7.5-16c1.189-.929 2.522-1.262 4-1-.07 6.527 2.097 12.194 6.5 17a91.883 91.883 0 0 0-4.5-20h4c-.39 6.391.443 12.724 2.5 19a244.18 244.18 0 0 1 1.5-22c1 .333 1.667 1 2 2a76.62 76.62 0 0 0-.5 21 256.24 256.24 0 0 0 3.5-17Z"/><path style="opacity:1" fill="#f8522a" d="M482.5 468.5c3.661-.15 4.661 1.35 3 4.5-3.793.487-4.793-1.013-3-4.5Z"/><path style="opacity:1" fill="#ebbdb6" d="M367.5 474.5h2c1.44 1.92 1.107 3.587-1 5-2.107-1.413-2.44-3.08-1-5Z"/><path style="opacity:1" fill="#f24f2a" d="M489.5 493.5h4c.49 2.448-.343 4.115-2.5 5-2.611-1-3.111-2.667-1.5-5Z"/><path style="opacity:1" fill="#f5512a" d="M447.5 491.5c3.638-.763 5.138.57 4.5 4-3.669 1.509-5.169.176-4.5-4Z"/><path style="opacity:1" fill="#b22428" d="M475.5 501.5h-10a187.625 187.625 0 0 0 5.5-10 67.424 67.424 0 0 0 4.5 10Z"/></svg>